<svg width="136" height="136" viewBox="0 0 136 136" fill="none" xmlns="http://www.w3.org/2000/svg">
<g id="desk-computer_svgrepo.com">
<g id="Group">
<path id="Vector" fill-rule="evenodd" clip-rule="evenodd" d="M110.555 115.514C113.765 115.514 116.366 116.067 116.366 116.753C116.366 117.439 113.765 117.993 110.555 117.993C107.346 117.993 104.745 117.439 104.745 116.753C104.734 116.078 107.335 115.514 110.555 115.514ZM37.0436 8.54425H95.0384C95.957 8.54425 96.7096 9.29685 96.7096 10.2044V44.7135C96.7096 45.6321 95.957 46.3847 95.0384 46.3847H37.0436C36.125 46.3847 35.3724 45.6321 35.3724 44.7135V10.2155C35.3724 9.29685 36.125 8.54425 37.0436 8.54425ZM58.4818 48.6868H73.6003C73.6335 51.1549 74.5964 53.3795 77.153 55.1725H133.067C133.875 55.1725 134.605 55.5045 135.137 56.0247C135.668 56.556 136 57.2864 136 58.0944V66.7936C136 67.6015 135.668 68.332 135.137 68.8633C134.605 69.3945 133.875 69.7265 133.067 69.7265H132.879V125.375C132.879 125.939 132.646 126.46 132.27 126.825L132.259 126.836C131.883 127.212 131.374 127.445 130.809 127.445H90.8327C90.2682 127.445 89.748 127.212 89.3717 126.836C89.3053 126.77 89.2389 126.692 89.1836 126.615C88.918 126.271 88.763 125.84 88.763 125.375V69.7265H24.7806V125.375C24.7806 125.951 24.5482 126.46 24.1719 126.836C23.7956 127.212 23.2754 127.445 22.7109 127.445H12.9049C12.3405 127.445 11.8314 127.212 11.4551 126.836C11.0788 126.46 10.8464 125.951 10.8464 125.386V69.7265H2.92188C2.11393 69.7265 1.38346 69.3945 0.852214 68.8633C0.332031 68.332 0 67.6015 0 66.7936V58.0944C0 57.2864 0.332031 56.556 0.863281 56.0247C1.39453 55.4935 2.125 55.1725 2.93294 55.1725H54.8848C56.9876 53.5345 58.4928 51.5423 58.4818 48.6868ZM66.041 40.7624C67.2253 40.7624 68.1771 41.7252 68.1771 42.8984C68.1771 44.0827 67.2142 45.0345 66.041 45.0345C64.8568 45.0345 63.8939 44.0716 63.8939 42.8984C63.9049 41.7252 64.8568 40.7624 66.041 40.7624ZM40.3861 11.6875H91.6849C92.4928 11.6875 93.1569 12.3515 93.1569 13.1595V37.9512C93.1569 38.7591 92.4928 39.4232 91.6849 39.4232H40.3861C39.5781 39.4232 38.9141 38.7591 38.9141 37.9512V13.1595C38.9141 12.3515 39.5781 11.6875 40.3861 11.6875ZM92.1719 85.4538H129.47V69.7376H92.1719V85.4538ZM129.481 88.8515H92.1829V104.878H129.481V88.8515ZM129.481 108.298H92.1829V124.036H129.481V108.298ZM132.591 58.5703H3.40885V66.3066H132.591V58.5703ZM21.3717 69.7265H14.2441V124.025H21.3717V69.7265ZM110.555 76.1901C113.765 76.1901 116.366 76.7103 116.366 77.3633C116.366 78.0163 113.765 78.5364 110.555 78.5364C107.346 78.5364 104.745 78.0052 104.745 77.3633C104.745 76.7213 107.335 76.1901 110.555 76.1901ZM110.555 95.8242C113.765 95.8242 116.366 96.3776 116.366 97.0638C116.366 97.75 113.765 98.3034 110.555 98.3034C107.346 98.3034 104.745 97.75 104.745 97.0638C104.734 96.3776 107.335 95.8242 110.555 95.8242Z" fill="black"/>
</g>
</g>
</svg>
