<svg width="198" height="198" viewBox="0 0 198 198" fill="none" xmlns="http://www.w3.org/2000/svg">
<rect width="198" height="198" fill="white"/>
<g clip-path="url(#clip0_2_5)">
<path d="M156.483 110.706C156.264 110.986 155.316 111.187 155.335 111.272C155.896 112.034 156.616 112.724 157.111 113.538C161.709 121.122 156.188 131.011 153.542 138.37L156.798 141.576C162.056 142.486 168.117 144.549 171.644 148.74C176.439 154.437 176.511 161.242 176.723 168.345C176.778 170.191 177.142 172.126 176.934 174.004C176.636 176.692 173.662 176.794 173.187 174.519C172.889 162.114 174.39 150.289 160.191 146.064C151.245 143.403 131.566 143.35 122.895 146.747C111.438 151.237 113.303 164.652 112.935 174.806C112.317 176.671 109.539 176.455 109.296 174.619C108.993 172.332 109.162 167.33 109.298 164.888C109.575 159.869 110.646 153.136 113.623 149.1C114.241 148.26 115.208 147.5 115.765 146.586C113.206 146.157 110.39 145.516 107.799 145.361C98.982 144.833 84.0385 144.702 76.5402 149.658C70.6424 153.559 69.6369 160.703 69.3278 167.317C69.2431 169.119 69.6856 175.039 69.133 176.187C68.5191 177.465 65.9301 177.206 65.7184 175.612C65.4009 173.229 65.5448 168.217 65.693 165.698C66.0719 159.246 67.5961 152.319 72.59 147.931C73.1934 147.401 74.2624 147.099 74.292 146.376C74.165 146.206 71.3008 145.529 70.797 145.423C61.5438 143.481 43.0734 143.394 34.4765 147.358C23.4176 152.453 25.6319 163.018 24.9333 173.002C24.8359 174.396 24.7788 176.085 23.0005 176.147C20.4496 176.236 21.0508 171.47 21.0804 169.745C21.1821 163.852 21.5483 156.19 24.6433 151.059C28.1637 145.221 35.0925 142.592 41.5365 141.485C42.4002 140.332 43.4291 139.52 44.4791 138.55C41.1512 129.43 34.7178 117.941 43.8715 110.014C43.8588 108.376 42.6204 105.163 44.7649 104.446C47.0448 103.684 47.248 106.095 47.3327 107.733C47.4597 107.858 49.7714 106.744 50.1567 106.619C54.7526 105.133 63.4342 105.074 66.7875 109.165C71.7475 115.219 73.1933 131.654 68.1211 137.922C67.973 138.104 66.4361 139.414 66.5123 139.496C67.3654 139.779 67.7464 140.861 68.5212 141.228C69.7343 141.801 72.6197 142.007 74.1841 142.433C75.2489 142.724 78.3121 144.143 78.9282 144.169C79.2986 144.186 85.8019 142.497 86.1321 142.325C86.5555 142.104 87.1716 140.967 87.669 140.517C88.4523 139.81 89.4684 139.312 90.2877 138.658C90.0824 136.988 89.3097 135.443 88.8228 133.831C85.0546 121.362 79.8088 105.513 98.7047 104.081C119.042 102.538 117.838 124.242 111.002 137.249C110.712 137.801 109.783 138.794 109.903 139.367L112.948 142.227C115.28 142.796 117.711 142.976 119.925 143.957C123.024 142.645 126.238 141.839 129.555 141.277C129.663 141.222 131.052 139.67 131.081 139.56C131.308 138.756 130.116 138.297 129.695 137.782C124.851 131.868 126.274 113.443 131.943 108.469C136.992 104.04 147.975 105.193 153.013 109.343C153.275 109.343 153.487 107.593 153.515 107.221C153.618 105.806 153.085 101.912 154.184 101.112C154.952 100.552 156.942 100.87 157.145 101.967C157.348 103.064 157.262 106.998 157.145 108.231C157.096 108.745 156.758 110.345 156.48 110.701L156.483 110.706ZM108.786 110.686C105.398 107.198 99.9727 107.329 95.5356 108.397C88.1369 110.177 88.084 115.796 89.4134 122.315C89.9024 124.711 90.7132 127.066 91.4393 129.389C97.5488 131.488 104.626 131.471 110.456 128.515C112.084 123.567 112.801 116.027 109.618 111.573C109.334 111.175 109.09 111.003 108.786 110.686ZM63.0807 110.773C58.5504 108.615 52.7203 109.019 48.37 111.506C42.0679 115.111 42.1271 120.333 44.0049 126.754C44.1615 127.291 45.2793 130.565 45.5121 130.707C50.3938 131.009 57.6296 130.531 59.5454 125.139C61.1458 120.634 60.2715 114.949 63.0786 110.776L63.0807 110.773ZM151.614 112.878C147.67 109.676 140.701 108.21 135.971 110.281C135.544 110.468 134.384 111.145 134.384 111.637C135.116 115.075 135.866 118.635 137.335 121.831C139.64 126.852 142.758 128.821 148.095 130.066C148.724 130.213 151.806 130.849 152.206 130.807C152.513 130.775 152.657 130.618 152.759 130.344C154.821 124.407 157.372 117.555 151.614 112.878ZM50.868 134.446C49.6275 134.58 48.1943 134.348 46.9326 134.446L47.8556 136.888C52.8601 135.284 58.0953 135.214 62.9812 137.277C64.8378 136.362 66.163 134.563 66.815 132.625C68.0195 129.056 67.7168 122.504 66.8658 118.816C66.5546 117.472 65.9089 116.161 65.7036 114.818H65.1003L63.8407 123.372C62.8457 130.397 57.5279 133.729 50.868 134.448V134.446ZM131.915 117.245C131.503 117.43 131.304 118.228 131.202 118.652C130.249 122.599 129.743 132.507 132.633 135.651C132.838 135.874 134.371 136.867 134.64 136.891C135.597 136.982 135.709 136.511 136.316 136.324C141.09 134.86 145.523 134.938 150.295 136.386C150.39 135.934 151.362 134.635 150.896 134.342C150.392 134.026 148.201 133.928 147.452 133.746C143.8 132.863 139.507 131.091 136.96 128.278C134.337 125.379 132.872 120.986 131.915 117.243V117.245ZM108.701 133.232C108.191 133.275 107.81 133.616 107.297 133.746C104.247 134.518 99.833 134.73 96.6915 134.444C95.4171 134.327 94.0643 133.595 92.7561 133.937L93.5859 137.05L93.9458 137.173C97.4133 136.326 100.805 136.313 104.312 136.922C104.873 137.02 105.653 137.536 106.173 137.485C106.931 137.41 106.904 136.252 107.63 136.004L108.701 133.232ZM150.085 140.519C146.541 138.936 142.78 138.433 138.971 139.39C138.154 139.596 136.706 140.088 136.158 140.717L150.085 140.519ZM50.0593 140.515C53.3597 140.322 57.0114 140.515 60.3541 140.515C60.5298 140.515 60.9532 141.098 60.86 140.315C56.9839 139.216 52.7479 139.091 48.9501 140.519C49.0199 141.073 49.9027 140.526 50.0593 140.517V140.515ZM105.636 141.162C105.466 141.048 105.064 141.162 104.825 141.073C101.548 139.863 96.8143 139.821 93.5901 141.251C93.3912 141.34 92.9339 141.472 92.9572 141.727H105.875C105.794 141.595 105.669 141.185 105.633 141.16L105.636 141.162Z" fill="black"/>
<path d="M131.92 78.2883C131.475 69.028 130.423 61.2935 121.049 57.4145C118.56 56.3853 115.621 55.6278 112.941 55.5238L113.032 54.7048L114.48 51.8953C116.436 51.8783 120.928 55.2459 121.544 51.8889C121.913 49.8773 119.256 49.3892 117.829 48.9054C117.035 48.6359 116.186 48.4025 115.363 48.237C118.308 40.634 120.209 29.1987 113.036 23.3548C107.645 18.9602 96.592 18.5783 91.8161 24.0275C91.6658 24.1973 91.7018 24.5559 91.4584 24.7787C91.1133 25.0927 90.3935 25.0736 89.9511 25.2943C83.6172 28.4391 84.0575 36.9821 85.785 42.7814C86.2824 44.4514 87.2308 46.1829 87.8045 47.8402C88.2025 48.9924 88.3676 50.4354 88.8228 51.6767C89.2843 52.935 90.0358 54.083 90.5333 55.3222C82.0972 56.2941 74.0528 59.5259 71.2119 68.2302C69.6919 72.8836 69.4125 80.6543 69.7321 85.5836C69.7893 86.4642 69.9015 87.366 70.8943 87.6546C72.1687 88.0238 72.7996 87.3979 73.3246 86.3348C73.7056 78.7254 72.3063 67.6848 79.4722 62.7576C81.2483 61.5354 83.4415 60.6059 85.5542 60.1667C88.4036 65.2955 89.9638 68.3702 90.8656 70.2545C91.4668 71.5086 92.1527 72.7202 92.7984 73.9531C93.1413 74.6088 93.4758 75.2708 93.7764 75.9477C93.8675 76.1493 94.1257 76.6246 94.4962 77.2634L99.8796 86.7719C100.853 88.7665 102.665 90.2243 104.338 87.4743C108.261 81.0192 111.243 73.2486 114.978 66.6153L118.005 60.7057C118.102 60.4956 118.242 60.3831 118.481 60.381C118.718 60.3768 121.288 61.6033 121.682 61.8346C126.197 64.4828 127.451 69.3421 128.075 74.2459L128.611 86.6637C129.472 88.3803 131.884 87.9814 132.121 85.9846C132.409 83.5614 132.032 80.7094 131.917 78.2883H131.92ZM110.447 26.0582C111.165 26.5781 112.253 27.7728 112.704 28.5494C114.806 32.1843 114.309 36.9439 113.75 40.9565C112.423 39.764 111.497 38.6415 109.77 37.9667C104.7 35.9848 96.8629 39.6706 94.2676 32.4602C90.7534 22.6949 104.852 22.0095 110.447 26.0582ZM93.0291 38.6012C93.9056 37.7609 93.9627 38.3423 94.6825 38.824C99.8732 42.2913 103.004 39.9146 107.89 41.2642C110.871 42.0875 112.306 45.5782 111.682 48.4938C110.092 55.9079 102.426 62.4117 95.6542 55.8591C92.0469 52.3685 88.9286 42.5353 93.0313 38.6012H93.0291ZM89.4325 37.1221C89.0768 37.5317 89.3393 38.1152 88.5179 37.9221C88.2533 35.9911 88.2448 34.1047 88.7762 32.2119C88.8503 31.9488 89.7373 29.5616 90.131 30.0305C90.0019 31.8321 90.8402 33.432 91.2467 35.1169C91.2149 35.3185 89.7204 36.7911 89.4325 37.1221ZM88.9244 58.4585C89.2377 57.9577 89.3457 58.3588 89.424 58.3588C90.3152 58.3588 92.121 58.1975 92.8556 58.3588C93.0037 58.3906 94.782 59.9821 95.1948 60.2622C95.669 60.5847 97.4938 61.3889 97.5573 61.72L95.8807 71.3113L88.9223 58.4585H88.9244ZM102.045 83.0478L101.649 82.1375L98.6983 77.0109L101.26 62.2314H102.416L105.816 77.2464C105.339 77.9063 102.877 82.8144 102.043 83.05L102.045 83.0478ZM108.199 71.7165L106.114 61.512C107.653 60.538 109.143 59.6617 110.42 58.3588H114.963L108.199 71.7165Z" fill="black"/>
<path d="M144.966 67.74C145.601 68.3681 146.778 70.1336 147.32 70.9569C148.142 72.2067 149.736 73.9765 148.842 75.4279C148.222 76.4358 147.359 76.2236 146.3 76.1111L141.702 69.4927C141.23 67.3793 143.379 66.1676 144.966 67.7379V67.74Z" fill="black"/>
<path d="M151.855 82.8866C152.613 82.6956 153.711 83.4298 154.014 84.0685C154.575 85.2589 155.651 89.1358 155.892 90.4811C156.324 92.898 153.949 94.1627 152.418 92.1447C151.984 90.3156 151.47 88.5098 150.998 86.6891C150.915 86.3687 150.612 86.0823 150.538 85.7343C150.288 84.5608 150.549 83.2134 151.857 82.8866H151.855Z" fill="black"/>
<path d="M69.277 57.4081C69.6475 57.9089 69.675 59.4389 69.2325 59.9736C68.0915 60.85 66.923 61.6988 65.8094 62.6133C65.005 63.2733 63.9084 64.7523 62.9516 64.8202C61.2305 64.9411 60.3244 63.7083 61.0421 62.0871C61.2135 61.6988 63.5126 59.6129 63.9656 59.2394C64.0714 59.1524 64.3022 59.1863 64.4123 59.0993C65.3183 58.38 66.834 56.5763 68.1317 56.8182C68.3371 56.8564 69.1669 57.2617 69.2749 57.4081H69.277Z" fill="black"/>
<path d="M132.413 60.6929C131.526 60.067 128.465 58.0808 128.194 57.3381C127.624 55.7742 129.314 54.3843 130.901 55.0273C131.657 55.3329 135.313 58.0978 136.05 58.7683C137.089 59.7147 138.004 61.198 136.429 62.1698C134.854 63.1417 133.679 61.5863 132.411 60.6908L132.413 60.6929Z" fill="black"/>
<path d="M47.085 86.3242C48.0609 86.1841 48.8548 86.6318 49.1956 87.5591C49.5492 88.5225 49.0305 88.6965 48.8379 89.5135C48.4441 91.1813 48.1901 94.1563 47.5825 95.5399C46.8945 97.1059 43.844 96.8682 44.1234 94.099C44.261 92.7325 45.1311 88.5437 45.709 87.3894C46.0117 86.7846 46.3864 86.426 47.085 86.3242Z" fill="black"/>
<path d="M85.0208 48.9181C85.9078 49.3977 85.9967 50.9361 85.4992 51.7446C85.1224 52.3536 83.9961 52.3854 83.469 52.5934C81.5934 53.3318 79.7326 54.1127 77.8443 54.8215C76.0152 54.9318 75.2129 52.377 76.6249 51.3987C77.4357 50.8364 81.6167 49.2216 82.6625 48.9542C83.397 48.7654 84.3158 48.5404 85.0208 48.9203V48.9181Z" fill="black"/>
<path d="M56.5436 73.0576C56.4102 73.3144 55.7518 73.9998 55.5359 74.3732C54.9558 75.3706 53.203 79.014 52.2758 79.1965C50.2562 79.5954 49.4708 78.214 50.0699 76.3806C50.3705 75.4618 51.5264 74.3266 51.7974 73.2995C53.0252 72.0518 53.6349 69.1002 55.9635 70.0487C57.2654 70.5792 57.0876 72.02 56.5457 73.0576H56.5436Z" fill="black"/>
</g>
<defs>
<clipPath id="clip0_2_5">
<rect width="156" height="157" fill="white" transform="translate(21 20)"/>
</clipPath>
</defs>
</svg>
