<svg width="146" height="146" viewBox="0 0 146 146" fill="none" xmlns="http://www.w3.org/2000/svg">
<g id="networking-06_svgrepo.com" clip-path="url(#clip0_370_326)">
<path id="networking--06_1_" d="M131.747 43.9825C126.368 43.9825 121.897 47.9473 121.103 53.1075H110.454C109.742 48.4811 106.078 44.8174 101.452 44.1057V24.3318C106.612 23.5379 110.577 19.0667 110.577 13.6875C110.577 7.75167 105.745 2.91998 99.8095 2.91998C93.8737 2.91998 89.042 7.75167 89.042 13.6875C89.042 19.0667 93.0068 23.5379 98.167 24.3318V44.1102C95.2287 44.5619 92.6829 46.2044 91.0312 48.5267L82.691 44.3566C83.0195 43.3164 83.202 42.2077 83.202 41.0625C83.202 35.1267 78.3703 30.295 72.4345 30.295C68.8164 30.295 65.609 32.088 63.6562 34.8347L55.316 30.6645C55.6445 29.6289 55.827 28.5202 55.827 27.375C55.827 21.4392 50.9953 16.6075 45.0595 16.6075C39.1237 16.6075 34.292 21.4392 34.292 27.375C34.292 33.3108 39.1237 38.1425 45.0595 38.1425C48.6776 38.1425 51.8896 36.3449 53.8377 33.6028L62.1826 37.7729C61.8495 38.8086 61.667 39.9173 61.667 41.0625C61.667 42.2077 61.8495 43.3164 62.1826 44.3566L53.8423 48.5267C51.8896 45.7801 48.6776 43.9825 45.0595 43.9825C39.1237 43.9825 34.292 48.8142 34.292 54.75C34.292 60.1292 38.2568 64.6004 43.417 65.3943V80.6513C38.7997 81.3676 35.1726 84.9948 34.4562 89.6121H23.7663C22.9724 84.4519 18.5012 80.4871 13.122 80.4871C7.18618 80.4871 2.35449 85.3187 2.35449 91.2545C2.35449 97.1904 7.18618 102.017 13.122 102.017C18.5012 102.017 22.9724 98.0527 23.7663 92.8925H34.4608C35.1771 97.5097 38.8043 101.137 43.4216 101.853V121.668C38.2614 122.462 34.2966 126.933 34.2966 132.312C34.2966 138.253 39.1282 143.08 45.0641 143.08C50.9999 143.08 55.8316 138.248 55.8316 132.312C55.8316 126.933 51.8667 122.462 46.7066 121.668V101.853C49.6357 101.402 52.177 99.7864 53.8241 97.4687L62.1871 101.648C61.8495 102.684 61.667 103.792 61.667 104.937C61.667 110.878 66.4987 115.705 72.4345 115.705C76.0526 115.705 79.26 113.907 81.2173 111.161L89.5576 115.335C89.2245 116.376 89.042 117.48 89.042 118.625C89.042 124.565 93.8737 129.392 99.8095 129.392C105.745 129.392 110.577 124.561 110.577 118.625C110.577 112.689 105.745 107.857 99.8095 107.857C96.1914 107.857 92.984 109.655 91.0267 112.402L82.6864 108.232C83.0195 107.191 83.202 106.083 83.202 104.937C83.202 103.792 83.0195 102.684 82.6864 101.648L91.0267 97.4732C92.984 100.224 96.1914 102.017 99.8095 102.017C105.75 102.017 110.577 97.1858 110.577 91.25C110.577 85.8708 106.612 81.3995 101.452 80.6057V65.3943C106.078 64.6825 109.737 61.0189 110.454 56.3925H121.103C121.897 61.5527 126.368 65.5175 131.747 65.5175C137.687 65.5175 142.514 60.6858 142.514 54.75C142.514 48.8142 137.687 43.9825 131.747 43.9825ZM45.0595 34.8575C40.935 34.8575 37.577 31.4995 37.577 27.375C37.577 23.2505 40.935 19.8925 45.0595 19.8925C49.184 19.8925 52.542 23.2505 52.542 27.375C52.542 31.4995 49.184 34.8575 45.0595 34.8575ZM13.122 98.7325C8.99749 98.7325 5.63949 95.3791 5.63949 91.25C5.63949 87.1209 8.99749 83.7675 13.122 83.7675C17.2465 83.7675 20.6045 87.1255 20.6045 91.25C20.6045 95.3745 17.2465 98.7325 13.122 98.7325ZM99.8095 111.142C103.934 111.142 107.292 114.496 107.292 118.625C107.292 122.754 103.939 126.107 99.8095 126.107C95.6804 126.107 92.327 122.754 92.327 118.625C92.327 114.496 95.685 111.142 99.8095 111.142ZM92.327 13.6875C92.327 9.56298 95.6804 6.20498 99.8095 6.20498C103.939 6.20498 107.292 9.56298 107.292 13.6875C107.292 17.812 103.934 21.17 99.8095 21.17C95.685 21.17 92.327 17.812 92.327 13.6875ZM72.4345 33.58C76.559 33.58 79.917 36.938 79.917 41.0625C79.917 45.187 76.5636 48.545 72.4345 48.545C68.3054 48.545 64.952 45.187 64.952 41.0625C64.952 36.938 68.31 33.58 72.4345 33.58ZM79.917 73C79.917 77.1245 76.5636 80.4825 72.4345 80.4825C68.3054 80.4825 64.952 77.129 64.952 73C64.952 68.8709 68.31 65.5175 72.4345 65.5175C76.559 65.5175 79.917 68.8755 79.917 73ZM55.827 54.75C55.827 53.6048 55.6445 52.4961 55.316 51.4604L63.6608 47.2903C65.3124 49.6126 67.8583 51.2551 70.7966 51.7022V62.3557C65.6364 63.1495 61.6716 67.6208 61.6716 73C61.6716 74.6197 62.032 76.1572 62.6753 77.5397L52.9754 84.0047C51.3603 82.2391 49.1794 81.03 46.7066 80.6467V65.3897C51.8622 64.6004 55.827 60.1292 55.827 54.75ZM37.577 54.75C37.577 50.6255 40.935 47.2675 45.0595 47.2675C49.184 47.2675 52.542 50.6255 52.542 54.75C52.542 58.8745 49.184 62.2325 45.0595 62.2325C40.935 62.2325 37.577 58.8745 37.577 54.75ZM52.542 132.312C52.542 136.437 49.184 139.795 45.0595 139.795C40.935 139.795 37.577 136.437 37.577 132.312C37.577 128.188 40.935 124.83 45.0595 124.83C49.184 124.83 52.542 128.188 52.542 132.312ZM45.0595 98.7325C40.935 98.7325 37.577 95.3791 37.577 91.25C37.577 87.1209 40.935 83.7675 45.0595 83.7675C49.184 83.7675 52.542 87.1209 52.542 91.25C52.542 95.3791 49.184 98.7325 45.0595 98.7325ZM72.4345 112.42C68.31 112.42 64.952 109.067 64.952 104.937C64.952 100.808 68.31 97.455 72.4345 97.455C76.559 97.455 79.917 100.808 79.917 104.937C79.917 109.067 76.559 112.42 72.4345 112.42ZM89.5576 94.5396L81.2173 98.7142C79.26 95.963 76.0526 94.17 72.4345 94.17C68.8164 94.17 65.609 95.9676 63.6562 98.7097L55.2658 94.5167C55.5989 93.481 55.827 92.3952 55.827 91.25C55.827 89.6303 55.4437 88.111 54.8004 86.7331L64.4957 80.2681C66.4667 82.4215 69.2955 83.772 72.4345 83.772C75.5735 83.772 78.4068 82.417 80.3732 80.2681L90.0412 86.7149C89.3979 88.0927 89.0374 89.6349 89.0374 91.25C89.042 92.3952 89.2245 93.5039 89.5576 94.5396ZM82.2028 77.5351C82.8461 76.1572 83.2066 74.6197 83.2066 73C83.2066 67.6208 79.2417 63.1495 74.0816 62.3557V51.7022C77.0198 51.2505 79.5703 49.608 81.2219 47.2857L89.5621 51.4559C89.2245 52.4961 89.042 53.6048 89.042 54.75C89.042 60.1292 93.0068 64.6004 98.167 65.3943V80.6057C95.6941 80.9889 93.495 82.2162 91.8707 83.9819L82.2028 77.5351ZM107.292 91.25C107.292 95.3745 103.939 98.7325 99.8095 98.7325C95.6804 98.7325 92.327 95.3791 92.327 91.25C92.327 87.1209 95.6804 83.7675 99.8095 83.7675C103.939 83.7675 107.292 87.1255 107.292 91.25ZM99.8095 62.2325C95.685 62.2325 92.327 58.8745 92.327 54.75C92.327 50.6255 95.6804 47.2675 99.8095 47.2675C103.939 47.2675 107.292 50.6255 107.292 54.75C107.292 58.8745 103.934 62.2325 99.8095 62.2325ZM131.747 62.2325C127.622 62.2325 124.264 58.8745 124.264 54.75C124.264 50.6255 127.618 47.2675 131.747 47.2675C135.876 47.2675 139.229 50.6255 139.229 54.75C139.229 58.8745 135.871 62.2325 131.747 62.2325Z" fill="black"/>
</g>
<defs>
<clipPath id="clip0_370_326">
<rect width="146" height="146" fill="white"/>
</clipPath>
</defs>
</svg>
