<svg width="130" height="130" viewBox="0 0 130 130" fill="none" xmlns="http://www.w3.org/2000/svg">
<g id="presentation_svgrepo.com" clip-path="url(#clip0_370_382)">
<g id="Group">
<path id="Vector" d="M125.804 12.3733C127.063 12.3733 128.083 11.3529 128.083 10.094V2.27933C128.083 1.02043 127.063 0 125.804 0H0.647009C-0.611824 0 -1.63225 1.02036 -1.63225 2.27933V10.094C-1.63225 11.3529 -0.611824 12.3733 0.647081 12.3733H8.52277V79.1236H0.647009C-0.611897 79.1236 -1.63232 80.144 -1.63232 81.4029V89.2176C-1.63232 90.4765 -0.611897 91.4969 0.647009 91.4969H57.4309L21.488 126.078C20.5808 126.951 20.5532 128.394 21.4261 129.301C21.8735 129.766 22.4706 130 23.0688 130C23.6373 130 24.2068 129.789 24.6488 129.363L58.7773 96.5271V127.721C58.7773 128.98 59.7977 130 61.0566 130C62.3155 130 63.3359 128.98 63.3359 127.721V96.5271L97.4644 129.363C97.9067 129.789 98.4759 130 99.0444 130C99.6425 130 100.24 129.766 100.687 129.301C101.56 128.394 101.532 126.951 100.625 126.078L64.6823 91.4969H125.804C127.063 91.4969 128.083 90.4765 128.083 89.2176V81.4029C128.083 80.144 127.063 79.1236 125.804 79.1236H117.928V12.3733H125.804ZM2.92627 4.55852H123.525V7.81466H115.649H10.802H2.92627V4.55852ZM123.525 86.9383H2.92627V83.6822H10.802H115.649H123.525L123.525 86.9383ZM113.37 79.1236H13.0813V12.3733H113.37L113.37 79.1236Z" fill="#171A1F"/>
<path id="Vector_2" d="M36.273 61.5877C36.8561 61.5877 37.4396 61.3651 37.8844 60.9202L50.272 48.5333L64.5516 62.8129C64.9967 63.2577 65.5802 63.4803 66.1633 63.4803C66.7465 63.4803 67.33 63.2577 67.7752 62.8129L87.2683 43.3198L87.2686 56.3929C87.2686 57.6518 88.289 58.6722 89.548 58.6722C90.8068 58.6722 91.8272 57.6518 91.8272 56.3929L91.8266 37.5942C91.8266 36.9637 91.5706 36.3929 91.1567 35.9805C90.7442 35.5668 90.1735 35.3105 89.5429 35.3105L70.7446 35.3098C69.486 35.3098 68.4652 36.3302 68.4652 37.5891C68.4652 38.8481 69.4856 39.8684 70.7446 39.8684L84.2717 39.8691L66.1634 57.9774L51.8839 43.6979C50.9936 42.8081 49.5506 42.8081 48.6602 43.6979C48.6592 43.6988 48.6583 43.7001 48.6573 43.701L34.6615 57.6966C33.7711 58.587 33.7711 60.03 34.6612 60.92C35.1063 61.3651 35.6895 61.5877 36.273 61.5877Z" fill="#171A1F"/>
</g>
</g>
<defs>
<clipPath id="clip0_370_382">
<rect width="130" height="130" fill="white"/>
</clipPath>
</defs>
</svg>
